<svg xmlns="http://www.w3.org/2000/svg" viewBox="0 0 1400 1100" font-family="Segoe UI, Arial, sans-serif">
  <defs>
    <marker id="a" viewBox="0 0 10 6" refX="10" refY="3" markerWidth="10" markerHeight="6" orient="auto"><path d="M0,0 L10,3 L0,6 Z" fill="#6A1B9A"/></marker>
    <marker id="b" viewBox="0 0 10 6" refX="10" refY="3" markerWidth="10" markerHeight="6" orient="auto"><path d="M0,0 L10,3 L0,6 Z" fill="#2E7D32"/></marker>
    <marker id="c" viewBox="0 0 10 6" refX="10" refY="3" markerWidth="10" markerHeight="6" orient="auto"><path d="M0,0 L10,3 L0,6 Z" fill="#E65100"/></marker>
    <marker id="d" viewBox="0 0 10 6" refX="10" refY="3" markerWidth="10" markerHeight="6" orient="auto"><path d="M0,0 L10,3 L0,6 Z" fill="#1565C0"/></marker>
    <marker id="e" viewBox="0 0 10 6" refX="10" refY="3" markerWidth="10" markerHeight="6" orient="auto"><path d="M0,0 L10,3 L0,6 Z" fill="#555"/></marker>
    <filter id="s"><feDropShadow dx="2" dy="2" stdDeviation="3" flood-opacity="0.12"/></filter>
    <linearGradient id="hdr" x1="0" y1="0" x2="1" y2="0"><stop offset="0%" stop-color="#4A148C"/><stop offset="100%" stop-color="#6A1B9A"/></linearGradient>
  </defs>
  <rect width="1400" height="1100" fill="#f5f6f8" rx="8"/>

  <!-- Title -->
  <rect x="0" y="0" width="1400" height="56" fill="url(#hdr)" rx="8 8 0 0"/>
  <text x="700" y="36" text-anchor="middle" fill="white" font-size="20" font-weight="bold">SOAR-Light — On-Prem Data Flow (gRPC-In Integration)</text>
  <text x="700" y="52" text-anchor="middle" fill="#CE93D8" font-size="10">Config File → Manager → Python venv → gRPC Stream from grpc-in → Script Execution</text>

  <!-- ===== PHASE 1: Config Delivery (On-Prem) ===== -->
  <rect x="20" y="72" width="1360" height="210" rx="8" fill="white" stroke="#6A1B9A" stroke-width="1.5" filter="url(#s)"/>
  <rect x="20" y="72" width="1360" height="28" rx="8 8 0 0" fill="#6A1B9A"/>
  <text x="700" y="91" text-anchor="middle" fill="white" font-size="13" font-weight="bold">PHASE 1 — On-Prem Configuration Delivery (File-Based via Config Manager)</text>

  <!-- Config Manager -->
  <rect x="40" y="115" width="210" height="60" rx="6" fill="#E3F2FD" stroke="#1565C0" stroke-width="1.5"/>
  <text x="145" y="138" text-anchor="middle" font-size="11" font-weight="bold" fill="#1565C0">atlas.config.manager</text>
  <text x="145" y="153" text-anchor="middle" font-size="8" fill="#555">Cloud API config → on-prem file</text>
  <text x="145" y="165" text-anchor="middle" font-size="7" fill="#888">Dapr topic: cm-soar_light</text>
  <line x1="252" y1="145" x2="288" y2="145" stroke="#6A1B9A" stroke-width="1.5" marker-end="url(#a)"/>

  <!-- Config Generator -->
  <rect x="290" y="115" width="230" height="60" rx="6" fill="#E3F2FD" stroke="#1565C0" stroke-width="1.5"/>
  <text x="405" y="138" text-anchor="middle" font-size="11" font-weight="bold" fill="#1565C0">atlas.onprem.config.generator</text>
  <text x="405" y="153" text-anchor="middle" font-size="8" fill="#555">Template → JSON config file</text>
  <text x="405" y="165" text-anchor="middle" font-size="7" fill="#888">Renders soar_light.json</text>
  <line x1="522" y1="145" x2="558" y2="145" stroke="#6A1B9A" stroke-width="1.5" marker-end="url(#a)"/>

  <!-- Config File -->
  <rect x="560" y="112" width="270" height="66" rx="6" fill="#FFF8E1" stroke="#FF6F00" stroke-width="1.5"/>
  <text x="695" y="135" text-anchor="middle" font-size="11" font-weight="bold" fill="#FF6F00">/opt/soar_light/conf/soar_light.json</text>
  <text x="695" y="150" text-anchor="middle" font-size="8" fill="#555">Env: SOAR_LIGHT_CONFIG</text>
  <text x="695" y="164" text-anchor="middle" font-size="8" fill="#555">Contains: flows[], scripts (base64)</text>
  <text x="695" y="175" text-anchor="middle" font-size="7" fill="#888">Monitored via inotify file watcher</text>
  <line x1="832" y1="145" x2="868" y2="145" stroke="#2E7D32" stroke-width="1.5" marker-end="url(#b)"/>

  <!-- File Watcher -->
  <rect x="870" y="115" width="200" height="60" rx="6" fill="#E8F5E9" stroke="#2E7D32" stroke-width="1.5"/>
  <text x="970" y="138" text-anchor="middle" font-size="11" font-weight="bold" fill="#2E7D32">File Watcher (inotify)</text>
  <text x="970" y="153" text-anchor="middle" font-size="8" fill="#555">Detects CREATE/MODIFY events</text>
  <text x="970" y="165" text-anchor="middle" font-size="7" fill="#888">Re-processes all flows on change</text>
  <line x1="1072" y1="145" x2="1108" y2="145" stroke="#2E7D32" stroke-width="1.5" marker-end="url(#b)"/>

  <!-- Manager -->
  <rect x="1110" y="112" width="250" height="66" rx="6" fill="#FCE4EC" stroke="#AD1457" stroke-width="1.5"/>
  <text x="1235" y="132" text-anchor="middle" font-size="11" font-weight="bold" fill="#AD1457">Manager.Process()</text>
  <text x="1235" y="148" text-anchor="middle" font-size="8" fill="#555">Parse JSON → For each flow:</text>
  <text x="1235" y="162" text-anchor="middle" font-size="8" fill="#555">ProcessFlow(key, dataType, flow)</text>
  <text x="1235" y="175" text-anchor="middle" font-size="7" fill="#888">Terminates old → creates new handlers</text>

  <!-- Config JSON sample -->
  <rect x="40" y="192" width="1320" height="78" rx="5" fill="#FAFAFA" stroke="#CCC" stroke-dasharray="4,2"/>
  <text x="50" y="210" font-size="9" font-weight="bold" fill="#333">soar_light.json (On-Prem Config):</text>
  <text x="50" y="226" font-size="8" font-family="Consolas, monospace" fill="#555">{"flows":[{"id":1, "data_types":[{"name":"AUDIT_LOG"},{"name":"DNS_LOG"}],</text>
  <text x="50" y="239" font-size="8" font-family="Consolas, monospace" fill="#555">  "destinations":[{"application":{"type":"PYTHON_SCRIPT", "data":"&lt;base64_scripts&gt;",</text>
  <text x="50" y="252" font-size="8" font-family="Consolas, monospace" fill="#555">  "variables":"&lt;base64_vars&gt;"}, "context":"&lt;base64_ctx&gt;"}], "schedule":"0 */6 * * *"}]}</text>
  <text x="50" y="266" font-size="7" fill="#888">Note: On-prem JSON structure mirrors the Dapr FlowConfig but is delivered as a file, NOT via Kafka.</text>

  <!-- ===== PHASE 2: Same Venv/Script Setup ===== -->
  <rect x="20" y="296" width="1360" height="115" rx="8" fill="white" stroke="#2E7D32" stroke-width="1.5" filter="url(#s)"/>
  <rect x="20" y="296" width="1360" height="28" rx="8 8 0 0" fill="#2E7D32"/>
  <text x="700" y="315" text-anchor="middle" fill="white" font-size="13" font-weight="bold">PHASE 2 — Virtual Environment &amp; Script Setup (Identical to Cloud Mode)</text>
  <text x="40" y="348" font-size="10" fill="#555">Same process as C2C: CreateVirtualEnv → Base64 Decode Scripts → Template(infoblox_driver.py.tmpl) → Execute</text>
  <text x="40" y="366" font-size="9" font-family="Consolas, monospace" fill="#AD1457">env -i /venv-1/bin/python3 /venv-1/src/infoblox_driver.py --addr grpc-in.service:9195 --flow-id 1 --event-type AUDIT_LOG --cloud-mode false</text>
  <text x="40" y="384" font-size="9" fill="#888">Key difference: --cloud-mode false (no --kafka-consumer, no --account-id). Instead: --addr pointing to local grpc-in service on port 9195.</text>
  <text x="40" y="400" font-size="9" fill="#888">Venv created at: /src/python/venv/venv-{flowId}/ — one per flow, shared across data types of the same flow</text>

  <!-- ===== PHASE 3: gRPC Stream from grpc-in ===== -->
  <rect x="20" y="427" width="1360" height="350" rx="8" fill="white" stroke="#E65100" stroke-width="1.5" filter="url(#s)"/>
  <rect x="20" y="427" width="1360" height="28" rx="8 8 0 0" fill="#E65100"/>
  <text x="700" y="446" text-anchor="middle" fill="white" font-size="13" font-weight="bold">PHASE 3 — gRPC Bidirectional Streaming (soar_light.py ↔ cdc.grpc-in)</text>

  <!-- NIOS data sources -->
  <rect x="40" y="470" width="160" height="55" rx="6" fill="#E3F2FD" stroke="#1565C0" stroke-width="1.5"/>
  <text x="120" y="493" text-anchor="middle" font-size="10" font-weight="bold" fill="#1565C0">NIOS Grid</text>
  <text x="120" y="508" text-anchor="middle" font-size="8" fill="#555">DNS/RPZ/DHCP data</text>
  <text x="120" y="519" text-anchor="middle" font-size="7" fill="#888">via dns-in, rpz-in, wapi-in</text>

  <line x1="202" y1="497" x2="238" y2="497" stroke="#555" stroke-width="1.5" marker-end="url(#e)"/>

  <!-- Flume / file processing -->
  <rect x="240" y="470" width="160" height="55" rx="6" fill="#FFF3E0" stroke="#E65100" stroke-width="1.5"/>
  <text x="320" y="493" text-anchor="middle" font-size="10" font-weight="bold" fill="#E65100">cdc.flume</text>
  <text x="320" y="508" text-anchor="middle" font-size="8" fill="#555">Parse → Format → File</text>
  <text x="320" y="519" text-anchor="middle" font-size="7" fill="#888">/data/out/* directories</text>

  <line x1="402" y1="497" x2="438" y2="497" stroke="#555" stroke-width="1.5" marker-end="url(#e)"/>

  <!-- grpc-out -->
  <rect x="440" y="470" width="160" height="55" rx="6" fill="#FFF3E0" stroke="#E65100" stroke-width="1.5"/>
  <text x="520" y="493" text-anchor="middle" font-size="10" font-weight="bold" fill="#E65100">cdc.grpc-out</text>
  <text x="520" y="508" text-anchor="middle" font-size="8" fill="#555">File → Cloud gRPC</text>
  <text x="520" y="519" text-anchor="middle" font-size="7" fill="#888">(NOT directly to soar-light)</text>

  <!-- grpc-in (KEY) -->
  <rect x="660" y="465" width="310" height="68" rx="6" fill="#FFECB3" stroke="#FF6F00" stroke-width="2"/>
  <text x="815" y="488" text-anchor="middle" font-size="12" font-weight="bold" fill="#FF6F00">cdc.grpc-in (KEY COMPONENT)</text>
  <text x="815" y="505" text-anchor="middle" font-size="9" fill="#555">Receives Cloud data → Writes to on-prem topics</text>
  <text x="815" y="518" text-anchor="middle" font-size="8" fill="#FF6F00">gRPC server on port 9195 (bidirectional stream)</text>
  <text x="815" y="529" text-anchor="middle" font-size="7" fill="#888">Also receives Dapr PubSub events from cloud Kafka</text>

  <!-- Arrow from grpc-in to soar-light -->
  <line x1="972" y1="499" x2="1018" y2="499" stroke="#E65100" stroke-width="2" marker-end="url(#c)"/>
  <text x="995" y="492" text-anchor="middle" font-size="7" fill="#E65100">stream</text>

  <!-- soar-light Python -->
  <rect x="1020" y="465" width="340" height="68" rx="6" fill="#F3E5F5" stroke="#6A1B9A" stroke-width="2"/>
  <text x="1190" y="488" text-anchor="middle" font-size="12" font-weight="bold" fill="#6A1B9A">soar-light Python Process</text>
  <text x="1190" y="505" text-anchor="middle" font-size="9" fill="#555">soar_light.py:SoarLightClient</text>
  <text x="1190" y="518" text-anchor="middle" font-size="8" fill="#555">Subscribes: topic = "{flowId}_{eventType}"</text>
  <text x="1190" y="529" text-anchor="middle" font-size="7" fill="#888">e.g. "1_AUDIT_LOG"</text>

  <!-- gRPC Detail Box -->
  <rect x="40" y="550" width="600" height="210" rx="6" fill="#FAFAFA" stroke="#E65100" stroke-width="1"/>
  <text x="50" y="572" font-size="10" font-weight="bold" fill="#E65100">gRPC Bidirectional Stream Protocol (soar_light.py → grpc-in):</text>

  <text x="50" y="594" font-size="9" font-weight="bold" fill="#333">1. Connection Setup:</text>
  <text x="60" y="610" font-size="8" font-family="Consolas, monospace" fill="#555">host = os.getenv("CDC_GRPC_IN_SERVICE_HOST", "cdc-grpc-in.svc")</text>
  <text x="60" y="623" font-size="8" font-family="Consolas, monospace" fill="#555">port = int(os.getenv("CDC_GRPC_IN_SERVICE_PORT", "9195"))</text>
  <text x="60" y="636" font-size="8" font-family="Consolas, monospace" fill="#555">channel = grpc.insecure_channel(f"{host}:{port}")</text>
  <text x="60" y="649" font-size="8" font-family="Consolas, monospace" fill="#555">stub = pb.ServerStub(channel)</text>

  <text x="50" y="672" font-size="9" font-weight="bold" fill="#333">2. Subscribe to Topic:</text>
  <text x="60" y="688" font-size="8" font-family="Consolas, monospace" fill="#555">stub.Subscribe(Topics=["{flow_id}_{data_type}"])  # e.g. "1_AUDIT_LOG"</text>

  <text x="50" y="708" font-size="9" font-weight="bold" fill="#333">3. Consume + Acknowledge:</text>
  <text x="60" y="724" font-size="8" font-family="Consolas, monospace" fill="#555">for resp in client_stream:            # ClientCtrl_Messages from grpc-in</text>
  <text x="60" y="737" font-size="8" font-family="Consolas, monospace" fill="#555">  plugin.process(ctx, resp.event)      # Call user's IEventHandler.process()</text>
  <text x="60" y="750" font-size="8" font-family="Consolas, monospace" fill="#555">  send(ServerCtrl_MarkMessages(ids))   # Acknowledge processed messages</text>

  <!-- On-Prem Topic naming -->
  <rect x="660" y="550" width="700" height="210" rx="6" fill="#FAFAFA" stroke="#6A1B9A" stroke-width="1"/>
  <text x="670" y="572" font-size="10" font-weight="bold" fill="#6A1B9A">On-Prem Topic Naming (NOT Kafka — internal gRPC topics):</text>
  <text x="670" y="594" font-size="9" font-weight="bold" fill="#333">Topic Format:</text>
  <text x="680" y="610" font-size="9" font-family="Consolas, monospace" fill="#6A1B9A">{flow_id}_{data_type_name}</text>
  <text x="670" y="635" font-size="9" font-weight="bold" fill="#333">Examples:</text>
  <text x="680" y="651" font-size="8" font-family="Consolas, monospace" fill="#555">1_AUDIT_LOG        ← Flow 1, audit events</text>
  <text x="680" y="664" font-size="8" font-family="Consolas, monospace" fill="#555">1_DNS_LOG          ← Flow 1, DNS query events</text>
  <text x="680" y="677" font-size="8" font-family="Consolas, monospace" fill="#555">2_SOC_INSIGHTS     ← Flow 2, SOC insight events</text>
  <text x="680" y="690" font-size="8" font-family="Consolas, monospace" fill="#555">2_SOC_INSIGHTS_V2  ← Flow 2, v2 insight events</text>
  <text x="670" y="715" font-size="9" font-weight="bold" fill="#333">Key Difference from Cloud:</text>
  <text x="680" y="731" font-size="8" fill="#555">• NO Kafka involved — grpc-in acts as the message broker</text>
  <text x="680" y="744" font-size="8" fill="#555">• NO account_id prefix — only flow_id + data_type</text>
  <text x="680" y="757" font-size="8" fill="#555">• Data comes from grpc-in's internal cache (parsed Parquet/CSV data)</text>

  <!-- ===== PHASE 4: How grpc-in gets the data ===== -->
  <rect x="20" y="793" width="1360" height="290" rx="8" fill="white" stroke="#555" stroke-width="1" filter="url(#s)"/>
  <rect x="20" y="793" width="1360" height="28" rx="8 8 0 0" fill="#555"/>
  <text x="700" y="812" text-anchor="middle" fill="white" font-size="13" font-weight="bold">How grpc-in Gets Data for SOAR-Light (On-Prem Data Path)</text>

  <!-- Full on-prem data chain -->
  <rect x="40" y="838" width="155" height="55" rx="5" fill="#E3F2FD" stroke="#1565C0"/>
  <text x="118" y="860" text-anchor="middle" font-size="9" font-weight="bold" fill="#1565C0">Cloud Kafka</text>
  <text x="118" y="875" text-anchor="middle" font-size="7" fill="#555">CDC events published</text>
  <text x="118" y="886" text-anchor="middle" font-size="7" fill="#888">by cdc.api / flow.api</text>
  <line x1="197" y1="865" x2="223" y2="865" stroke="#555" stroke-width="1.5" marker-end="url(#e)"/>

  <rect x="225" y="838" width="175" height="55" rx="5" fill="#E3F2FD" stroke="#1565C0"/>
  <text x="313" y="860" text-anchor="middle" font-size="9" font-weight="bold" fill="#1565C0">data.exporter.kafka</text>
  <text x="313" y="875" text-anchor="middle" font-size="7" fill="#555">Cloud gRPC server</text>
  <text x="313" y="886" text-anchor="middle" font-size="7" fill="#888">Chunked export 3.5MB</text>
  <line x1="402" y1="865" x2="428" y2="865" stroke="#555" stroke-width="1.5" marker-end="url(#e)"/>
  <text x="415" y="857" text-anchor="middle" font-size="6" fill="#555">gRPC</text>

  <rect x="430" y="838" width="155" height="55" rx="5" fill="#FFF3E0" stroke="#E65100"/>
  <text x="508" y="860" text-anchor="middle" font-size="9" font-weight="bold" fill="#E65100">cdc.grpc-out</text>
  <text x="508" y="875" text-anchor="middle" font-size="7" fill="#555">On-prem → Cloud pull</text>
  <text x="508" y="886" text-anchor="middle" font-size="7" fill="#888">Writes to /data/in/</text>
  <line x1="587" y1="865" x2="613" y2="865" stroke="#555" stroke-width="1.5" marker-end="url(#e)"/>

  <rect x="615" y="838" width="155" height="55" rx="5" fill="#FFF3E0" stroke="#E65100"/>
  <text x="693" y="860" text-anchor="middle" font-size="9" font-weight="bold" fill="#E65100">cdc.grpc-in</text>
  <text x="693" y="875" text-anchor="middle" font-size="7" fill="#555">Parse → Cache → Serve</text>
  <text x="693" y="886" text-anchor="middle" font-size="7" fill="#888">gRPC server :9195</text>
  <line x1="772" y1="865" x2="798" y2="865" stroke="#555" stroke-width="1.5" marker-end="url(#e)"/>

  <rect x="800" y="838" width="175" height="55" rx="5" fill="#F3E5F5" stroke="#6A1B9A"/>
  <text x="888" y="860" text-anchor="middle" font-size="9" font-weight="bold" fill="#6A1B9A">soar-light Python</text>
  <text x="888" y="875" text-anchor="middle" font-size="7" fill="#555">Subscribe + process</text>
  <text x="888" y="886" text-anchor="middle" font-size="7" fill="#888">plugin.process(ctx, event)</text>
  <line x1="977" y1="865" x2="1003" y2="865" stroke="#555" stroke-width="1.5" marker-end="url(#e)"/>

  <rect x="1005" y="838" width="175" height="55" rx="5" fill="#C8E6C9" stroke="#2E7D32"/>
  <text x="1093" y="860" text-anchor="middle" font-size="9" font-weight="bold" fill="#2E7D32">External SOAR</text>
  <text x="1093" y="875" text-anchor="middle" font-size="7" fill="#555">Slack / Teams / Jira</text>
  <text x="1093" y="886" text-anchor="middle" font-size="7" fill="#888">ServiceNow / PagerDuty</text>

  <!-- Alternative on-prem path -->
  <text x="40" y="920" font-size="10" font-weight="bold" fill="#333">Alternative On-Prem Data Path (NIOS Direct):</text>

  <rect x="40" y="935" width="130" height="45" rx="5" fill="#E3F2FD" stroke="#1565C0"/>
  <text x="105" y="955" text-anchor="middle" font-size="9" fill="#555">NIOS Grid</text>
  <text x="105" y="968" text-anchor="middle" font-size="7" fill="#888">syslog / SCP</text>
  <line x1="172" y1="957" x2="198" y2="957" stroke="#555" stroke-width="1.5" marker-end="url(#e)"/>

  <rect x="200" y="935" width="140" height="45" rx="5" fill="#FFF3E0" stroke="#E65100"/>
  <text x="270" y="955" text-anchor="middle" font-size="9" fill="#555">dns-in / rpz-in</text>
  <text x="270" y="968" text-anchor="middle" font-size="7" fill="#888">SSH, stunnel, rsyslog</text>
  <line x1="342" y1="957" x2="368" y2="957" stroke="#555" stroke-width="1.5" marker-end="url(#e)"/>

  <rect x="370" y="935" width="140" height="45" rx="5" fill="#FFF3E0" stroke="#E65100"/>
  <text x="440" y="955" text-anchor="middle" font-size="9" fill="#555">cdc.flume</text>
  <text x="440" y="968" text-anchor="middle" font-size="7" fill="#888">Parse + format</text>
  <line x1="512" y1="957" x2="538" y2="957" stroke="#555" stroke-width="1.5" marker-end="url(#e)"/>

  <rect x="540" y="935" width="140" height="45" rx="5" fill="#FFF3E0" stroke="#E65100"/>
  <text x="610" y="955" text-anchor="middle" font-size="9" fill="#555">cdc.grpc-in</text>
  <text x="610" y="968" text-anchor="middle" font-size="7" fill="#888">Parquet→Parse→Serve</text>
  <line x1="682" y1="957" x2="708" y2="957" stroke="#555" stroke-width="1.5" marker-end="url(#e)"/>

  <rect x="710" y="935" width="155" height="45" rx="5" fill="#F3E5F5" stroke="#6A1B9A"/>
  <text x="788" y="955" text-anchor="middle" font-size="9" fill="#555">soar-light Python</text>
  <text x="788" y="968" text-anchor="middle" font-size="7" fill="#888">gRPC stream consume</text>
  <line x1="867" y1="957" x2="893" y2="957" stroke="#555" stroke-width="1.5" marker-end="url(#e)"/>

  <rect x="895" y="935" width="155" height="45" rx="5" fill="#C8E6C9" stroke="#2E7D32"/>
  <text x="973" y="955" text-anchor="middle" font-size="9" fill="#555">External SOAR</text>
  <text x="973" y="968" text-anchor="middle" font-size="7" fill="#888">HTTP API calls</text>

  <!-- Key notes -->
  <text x="40" y="1005" font-size="9" font-weight="bold" fill="#333">grpc-in's Role for SOAR-Light:</text>
  <text x="40" y="1020" font-size="8" fill="#555">• grpc-in receives data from BOTH Cloud (via grpc-out pulling from data.exporter.kafka) AND NIOS (via dns-in/rpz-in/flume)</text>
  <text x="40" y="1033" font-size="8" fill="#555">• grpc-in parses incoming data (Parquet/CSV) into events and caches them indexed by {flow_id}_{data_type} topic</text>
  <text x="40" y="1046" font-size="8" fill="#555">• soar-light's Python process connects to grpc-in:9195 as a gRPC client and subscribes to specific topics</text>
  <text x="40" y="1059" font-size="8" fill="#555">• grpc-in streams events to soar-light in real-time — soar-light acknowledges with MarkMessages after processing</text>
  <text x="40" y="1072" font-size="8" fill="#AD1457" font-weight="bold">• grpc-in effectively acts as the on-prem "message broker" replacing Kafka in the cloud deployment model</text>

  <!-- Legend -->
  <rect x="40" y="1082" width="100" height="14" rx="3" fill="#E3F2FD" stroke="#1565C0"/>
  <text x="95" y="1092" font-size="6" fill="#555">Cloud Service</text>
  <rect x="150" y="1082" width="100" height="14" rx="3" fill="#FFF3E0" stroke="#E65100"/>
  <text x="205" y="1092" font-size="6" fill="#555">On-Prem Svc</text>
  <rect x="260" y="1082" width="100" height="14" rx="3" fill="#F3E5F5" stroke="#6A1B9A"/>
  <text x="315" y="1092" font-size="6" fill="#555">SOAR-Light</text>
  <rect x="370" y="1082" width="100" height="14" rx="3" fill="#C8E6C9" stroke="#2E7D32"/>
  <text x="425" y="1092" font-size="6" fill="#555">External SOAR</text>
  <rect x="480" y="1082" width="100" height="14" rx="3" fill="#FFF8E1" stroke="#FF6F00"/>
  <text x="535" y="1092" font-size="6" fill="#555">Config File</text>
</svg>