<svg xmlns="http://www.w3.org/2000/svg" viewBox="0 0 760 320" font-family="Helvetica, Arial, sans-serif" font-size="13">
  <defs>
    <marker id="a2" viewBox="0 0 10 10" refX="9" refY="5" markerWidth="8" markerHeight="8" orient="auto-start-reverse">
      <path d="M0,0 L10,5 L0,10 z" fill="#444"/>
    </marker>
  </defs>
  <rect x="1" y="1" width="758" height="318" fill="#ffffff" stroke="#ccc"/>
  <text x="380" y="28" text-anchor="middle" font-weight="bold" font-size="16">cdc.data.flow — data flow (2026-05-18 11:41)</text>

  <rect x="30"  y="70" width="160" height="60" rx="6" fill="#eef" stroke="#447"/><text x="110" y="105" text-anchor="middle">Source</text>
  <rect x="220" y="70" width="160" height="60" rx="6" fill="#eef" stroke="#447"/><text x="300" y="105" text-anchor="middle">Validate / Decode</text>
  <rect x="410" y="70" width="160" height="60" rx="6" fill="#eef" stroke="#447"/><text x="490" y="105" text-anchor="middle">Enrich / Filter</text>
  <rect x="600" y="70" width="140" height="60" rx="6" fill="#eef" stroke="#447"/><text x="670" y="105" text-anchor="middle">Publish</text>

  <line x1="190" y1="100" x2="220" y2="100" stroke="#444" marker-end="url(#a2)"/>
  <line x1="380" y1="100" x2="410" y2="100" stroke="#444" marker-end="url(#a2)"/>
  <line x1="570" y1="100" x2="600" y2="100" stroke="#444" marker-end="url(#a2)"/>

  <rect x="30"  y="200" width="710" height="70" rx="6" fill="#fdf6e3" stroke="#b58900"/>
  <text x="385" y="225" text-anchor="middle" font-weight="bold">Cross-cutting</text>
  <text x="385" y="248" text-anchor="middle">metrics · structured logs · tracing · retries · dead-letter</text>
  <text x="385" y="265" text-anchor="middle" font-size="11" fill="#666">Generated 2026-05-18 11:41</text>
</svg>
